<mxfile host="app.diagrams.net" modified="2023-03-27T15:00:08.511Z" agent="Mozilla/5.0 (Windows NT 10.0; Win64; x64) AppleWebKit/537.36 (KHTML, like Gecko) Chrome/111.0.0.0 Safari/537.36" etag="0KWO6X-Air9U0hZXZb-O" version="21.1.1" type="device">
  <diagram name="Page-1" id="2YBvvXClWsGukQMizWep">
    <mxGraphModel dx="1063" dy="542" grid="1" gridSize="10" guides="1" tooltips="1" connect="1" arrows="1" fold="1" page="0" pageScale="1" pageWidth="850" pageHeight="1100" background="#FFFFFF" math="0" shadow="0">
      <root>
        <mxCell id="0" />
        <mxCell id="1" parent="0" />
        <mxCell id="cWejEI39qg-8yP3Bkxt4-16" value="&amp;nbsp;:AddCommand" style="shape=umlLifeline;perimeter=lifelinePerimeter;whiteSpace=wrap;html=1;container=1;dropTarget=0;collapsible=0;recursiveResize=0;outlineConnect=0;portConstraint=eastwest;newEdgeStyle={&quot;edgeStyle&quot;:&quot;elbowEdgeStyle&quot;,&quot;elbow&quot;:&quot;vertical&quot;,&quot;curved&quot;:0,&quot;rounded&quot;:0};fillColor=#dae8fc;strokeColor=#6c8ebf;" parent="1" vertex="1">
          <mxGeometry x="378" y="160" width="112" height="540" as="geometry" />
        </mxCell>
        <mxCell id="cWejEI39qg-8yP3Bkxt4-24" value="" style="html=1;points=[];perimeter=orthogonalPerimeter;outlineConnect=0;targetShapes=umlLifeline;portConstraint=eastwest;newEdgeStyle={&quot;edgeStyle&quot;:&quot;elbowEdgeStyle&quot;,&quot;elbow&quot;:&quot;vertical&quot;,&quot;curved&quot;:0,&quot;rounded&quot;:0};" parent="cWejEI39qg-8yP3Bkxt4-16" vertex="1">
          <mxGeometry x="51" y="70" width="10" height="430" as="geometry" />
        </mxCell>
        <mxCell id="cWejEI39qg-8yP3Bkxt4-27" value="" style="html=1;points=[];perimeter=orthogonalPerimeter;outlineConnect=0;targetShapes=umlLifeline;portConstraint=eastwest;newEdgeStyle={&quot;edgeStyle&quot;:&quot;elbowEdgeStyle&quot;,&quot;elbow&quot;:&quot;vertical&quot;,&quot;curved&quot;:0,&quot;rounded&quot;:0};" parent="cWejEI39qg-8yP3Bkxt4-16" vertex="1">
          <mxGeometry x="56" y="180" width="10" height="20" as="geometry" />
        </mxCell>
        <mxCell id="cWejEI39qg-8yP3Bkxt4-28" value="processCommand()" style="html=1;align=left;spacingLeft=2;endArrow=block;rounded=0;edgeStyle=orthogonalEdgeStyle;curved=0;rounded=0;" parent="cWejEI39qg-8yP3Bkxt4-16" target="cWejEI39qg-8yP3Bkxt4-27" edge="1">
          <mxGeometry x="-1" y="10" relative="1" as="geometry">
            <mxPoint x="62" y="170" as="sourcePoint" />
            <Array as="points">
              <mxPoint x="85" y="170" />
              <mxPoint x="85" y="180" />
            </Array>
            <mxPoint as="offset" />
          </mxGeometry>
        </mxCell>
        <mxCell id="cWejEI39qg-8yP3Bkxt4-30" value="" style="html=1;verticalAlign=bottom;endArrow=open;dashed=1;endSize=8;edgeStyle=orthogonalEdgeStyle;elbow=vertical;rounded=0;" parent="cWejEI39qg-8yP3Bkxt4-16" source="cWejEI39qg-8yP3Bkxt4-27" edge="1">
          <mxGeometry relative="1" as="geometry">
            <mxPoint x="115" y="250" as="sourcePoint" />
            <mxPoint x="61" y="210" as="targetPoint" />
            <Array as="points">
              <mxPoint x="85" y="200" />
              <mxPoint x="85" y="210" />
            </Array>
          </mxGeometry>
        </mxCell>
        <mxCell id="cWejEI39qg-8yP3Bkxt4-45" value="" style="html=1;points=[];perimeter=orthogonalPerimeter;outlineConnect=0;targetShapes=umlLifeline;portConstraint=eastwest;newEdgeStyle={&quot;edgeStyle&quot;:&quot;elbowEdgeStyle&quot;,&quot;elbow&quot;:&quot;vertical&quot;,&quot;curved&quot;:0,&quot;rounded&quot;:0};" parent="cWejEI39qg-8yP3Bkxt4-16" vertex="1">
          <mxGeometry x="56" y="390" width="10" height="60" as="geometry" />
        </mxCell>
        <mxCell id="cWejEI39qg-8yP3Bkxt4-46" value="printSuccess(:Ui)" style="html=1;align=left;spacingLeft=2;endArrow=block;rounded=0;edgeStyle=orthogonalEdgeStyle;curved=0;rounded=0;" parent="cWejEI39qg-8yP3Bkxt4-16" target="cWejEI39qg-8yP3Bkxt4-45" edge="1">
          <mxGeometry x="-0.1429" y="10" relative="1" as="geometry">
            <mxPoint x="61" y="390" as="sourcePoint" />
            <Array as="points">
              <mxPoint x="61" y="380" />
              <mxPoint x="85" y="380" />
              <mxPoint x="85" y="390" />
            </Array>
            <mxPoint as="offset" />
          </mxGeometry>
        </mxCell>
        <mxCell id="cWejEI39qg-8yP3Bkxt4-47" value="" style="html=1;verticalAlign=bottom;endArrow=open;dashed=1;endSize=8;edgeStyle=orthogonalEdgeStyle;elbow=vertical;rounded=0;" parent="cWejEI39qg-8yP3Bkxt4-16" source="cWejEI39qg-8yP3Bkxt4-45" edge="1">
          <mxGeometry relative="1" as="geometry">
            <mxPoint x="115" y="430" as="sourcePoint" />
            <mxPoint x="61" y="460" as="targetPoint" />
            <Array as="points">
              <mxPoint x="85" y="450" />
              <mxPoint x="85" y="460" />
            </Array>
          </mxGeometry>
        </mxCell>
        <mxCell id="cWejEI39qg-8yP3Bkxt4-26" value="" style="html=1;verticalAlign=bottom;endArrow=open;dashed=1;endSize=8;edgeStyle=elbowEdgeStyle;elbow=vertical;curved=0;rounded=0;" parent="1" source="cWejEI39qg-8yP3Bkxt4-24" edge="1">
          <mxGeometry relative="1" as="geometry">
            <mxPoint x="180" y="660" as="targetPoint" />
            <mxPoint x="423" y="650" as="sourcePoint" />
            <Array as="points">
              <mxPoint x="350" y="660" />
              <mxPoint x="380" y="650" />
              <mxPoint x="370" y="620" />
              <mxPoint x="360" y="630" />
              <mxPoint x="240" y="540" />
            </Array>
          </mxGeometry>
        </mxCell>
        <mxCell id="cWejEI39qg-8yP3Bkxt4-31" value=": AccountList" style="shape=umlLifeline;perimeter=lifelinePerimeter;whiteSpace=wrap;html=1;container=1;dropTarget=0;collapsible=0;recursiveResize=0;outlineConnect=0;portConstraint=eastwest;newEdgeStyle={&quot;edgeStyle&quot;:&quot;elbowEdgeStyle&quot;,&quot;elbow&quot;:&quot;vertical&quot;,&quot;curved&quot;:0,&quot;rounded&quot;:0};fillColor=#dae8fc;strokeColor=#6c8ebf;" parent="1" vertex="1">
          <mxGeometry x="630" y="160" width="110" height="540" as="geometry" />
        </mxCell>
        <mxCell id="cWejEI39qg-8yP3Bkxt4-32" value="" style="html=1;points=[];perimeter=orthogonalPerimeter;outlineConnect=0;targetShapes=umlLifeline;portConstraint=eastwest;newEdgeStyle={&quot;edgeStyle&quot;:&quot;elbowEdgeStyle&quot;,&quot;elbow&quot;:&quot;vertical&quot;,&quot;curved&quot;:0,&quot;rounded&quot;:0};" parent="cWejEI39qg-8yP3Bkxt4-31" vertex="1">
          <mxGeometry x="50" y="250" width="10" height="30" as="geometry" />
        </mxCell>
        <mxCell id="cWejEI39qg-8yP3Bkxt4-33" value="getAccount(:Currency)" style="html=1;verticalAlign=bottom;endArrow=block;edgeStyle=elbowEdgeStyle;elbow=vertical;curved=0;rounded=0;" parent="1" source="cWejEI39qg-8yP3Bkxt4-24" target="cWejEI39qg-8yP3Bkxt4-32" edge="1">
          <mxGeometry x="0.2713" relative="1" as="geometry">
            <mxPoint x="440" y="410" as="sourcePoint" />
            <Array as="points">
              <mxPoint x="520" y="410" />
            </Array>
            <mxPoint as="offset" />
          </mxGeometry>
        </mxCell>
        <mxCell id="cWejEI39qg-8yP3Bkxt4-34" value="account" style="html=1;verticalAlign=bottom;endArrow=open;dashed=1;endSize=8;edgeStyle=elbowEdgeStyle;elbow=vertical;curved=0;rounded=0;" parent="1" source="cWejEI39qg-8yP3Bkxt4-32" edge="1">
          <mxGeometry relative="1" as="geometry">
            <mxPoint x="440" y="440" as="targetPoint" />
            <Array as="points">
              <mxPoint x="510" y="440" />
              <mxPoint x="510" y="440" />
              <mxPoint x="540" y="450" />
            </Array>
          </mxGeometry>
        </mxCell>
        <mxCell id="cWejEI39qg-8yP3Bkxt4-36" value="account: Account" style="shape=umlLifeline;perimeter=lifelinePerimeter;whiteSpace=wrap;html=1;container=1;dropTarget=0;collapsible=0;recursiveResize=0;outlineConnect=0;portConstraint=eastwest;newEdgeStyle={&quot;edgeStyle&quot;:&quot;elbowEdgeStyle&quot;,&quot;elbow&quot;:&quot;vertical&quot;,&quot;curved&quot;:0,&quot;rounded&quot;:0};fillColor=#dae8fc;strokeColor=#6c8ebf;" parent="1" vertex="1">
          <mxGeometry x="779" y="160" width="111" height="540" as="geometry" />
        </mxCell>
        <mxCell id="cWejEI39qg-8yP3Bkxt4-37" value="" style="html=1;points=[];perimeter=orthogonalPerimeter;outlineConnect=0;targetShapes=umlLifeline;portConstraint=eastwest;newEdgeStyle={&quot;edgeStyle&quot;:&quot;elbowEdgeStyle&quot;,&quot;elbow&quot;:&quot;vertical&quot;,&quot;curved&quot;:0,&quot;rounded&quot;:0};" parent="cWejEI39qg-8yP3Bkxt4-36" vertex="1">
          <mxGeometry x="50.5" y="320" width="10" height="20" as="geometry" />
        </mxCell>
        <mxCell id="cWejEI39qg-8yP3Bkxt4-38" value="updateBalance(changeInBalnce:BigDecimal, &quot;add&quot;:String)" style="html=1;verticalAlign=bottom;endArrow=block;edgeStyle=elbowEdgeStyle;elbow=vertical;curved=0;rounded=0;" parent="1" target="cWejEI39qg-8yP3Bkxt4-37" edge="1">
          <mxGeometry x="-0.0191" relative="1" as="geometry">
            <mxPoint x="440" y="480" as="sourcePoint" />
            <mxPoint x="590" y="470" as="targetPoint" />
            <Array as="points">
              <mxPoint x="650" y="480" />
              <mxPoint x="670" y="500" />
              <mxPoint x="590" y="470" />
              <mxPoint x="670" y="518" />
              <mxPoint x="670" y="498" />
              <mxPoint x="620" y="488" />
              <mxPoint x="570" y="518" />
            </Array>
            <mxPoint as="offset" />
          </mxGeometry>
        </mxCell>
        <mxCell id="cWejEI39qg-8yP3Bkxt4-39" value="" style="html=1;verticalAlign=bottom;endArrow=open;dashed=1;endSize=8;edgeStyle=elbowEdgeStyle;elbow=vertical;curved=0;rounded=0;" parent="1" source="cWejEI39qg-8yP3Bkxt4-37" edge="1">
          <mxGeometry x="0.0048" relative="1" as="geometry">
            <mxPoint x="440" y="500" as="targetPoint" />
            <Array as="points">
              <mxPoint x="680" y="500" />
              <mxPoint x="520" y="520" />
              <mxPoint x="540" y="500" />
            </Array>
            <mxPoint as="offset" />
          </mxGeometry>
        </mxCell>
        <mxCell id="cWejEI39qg-8yP3Bkxt4-48" value=":Ui" style="shape=umlLifeline;perimeter=lifelinePerimeter;whiteSpace=wrap;html=1;container=1;dropTarget=0;collapsible=0;recursiveResize=0;outlineConnect=0;portConstraint=eastwest;newEdgeStyle={&quot;edgeStyle&quot;:&quot;elbowEdgeStyle&quot;,&quot;elbow&quot;:&quot;vertical&quot;,&quot;curved&quot;:0,&quot;rounded&quot;:0};fillColor=#dae8fc;strokeColor=#6c8ebf;" parent="1" vertex="1">
          <mxGeometry x="510" y="160" width="100" height="540" as="geometry" />
        </mxCell>
        <mxCell id="cWejEI39qg-8yP3Bkxt4-49" value="" style="html=1;points=[];perimeter=orthogonalPerimeter;outlineConnect=0;targetShapes=umlLifeline;portConstraint=eastwest;newEdgeStyle={&quot;edgeStyle&quot;:&quot;elbowEdgeStyle&quot;,&quot;elbow&quot;:&quot;vertical&quot;,&quot;curved&quot;:0,&quot;rounded&quot;:0};" parent="cWejEI39qg-8yP3Bkxt4-48" vertex="1">
          <mxGeometry x="45" y="410" width="10" height="20" as="geometry" />
        </mxCell>
        <mxCell id="cWejEI39qg-8yP3Bkxt4-50" value="print(:String)" style="html=1;verticalAlign=bottom;endArrow=block;edgeStyle=elbowEdgeStyle;elbow=vertical;curved=0;rounded=0;" parent="1" source="cWejEI39qg-8yP3Bkxt4-45" target="cWejEI39qg-8yP3Bkxt4-49" edge="1">
          <mxGeometry relative="1" as="geometry">
            <mxPoint x="720" y="580" as="sourcePoint" />
            <Array as="points">
              <mxPoint x="500" y="570" />
              <mxPoint x="610" y="590" />
              <mxPoint x="750" y="570" />
            </Array>
          </mxGeometry>
        </mxCell>
        <mxCell id="cWejEI39qg-8yP3Bkxt4-51" value="" style="html=1;verticalAlign=bottom;endArrow=open;dashed=1;endSize=8;edgeStyle=elbowEdgeStyle;elbow=vertical;curved=0;rounded=0;" parent="1" source="cWejEI39qg-8yP3Bkxt4-49" target="cWejEI39qg-8yP3Bkxt4-45" edge="1">
          <mxGeometry relative="1" as="geometry">
            <mxPoint x="795" y="645" as="targetPoint" />
            <Array as="points">
              <mxPoint x="520" y="590" />
              <mxPoint x="780" y="610" />
              <mxPoint x="720" y="650" />
            </Array>
          </mxGeometry>
        </mxCell>
        <mxCell id="cWejEI39qg-8yP3Bkxt4-55" value="execute(:Ui, :AccountList)&amp;nbsp;" style="html=1;verticalAlign=bottom;startArrow=oval;startFill=1;endArrow=block;startSize=8;edgeStyle=elbowEdgeStyle;elbow=vertical;curved=0;rounded=0;" parent="1" target="cWejEI39qg-8yP3Bkxt4-24" edge="1">
          <mxGeometry x="-0.3416" width="60" relative="1" as="geometry">
            <mxPoint x="180" y="240" as="sourcePoint" />
            <mxPoint x="420" y="240" as="targetPoint" />
            <Array as="points">
              <mxPoint x="320" y="240" />
            </Array>
            <mxPoint as="offset" />
          </mxGeometry>
        </mxCell>
        <mxCell id="cWejEI39qg-8yP3Bkxt4-56" value="alt" style="shape=umlFrame;whiteSpace=wrap;html=1;pointerEvents=0;" parent="1" vertex="1">
          <mxGeometry x="260" y="250" width="800" height="430" as="geometry" />
        </mxCell>
        <mxCell id="cWejEI39qg-8yP3Bkxt4-57" value="" style="endArrow=none;dashed=1;html=1;strokeWidth=1;rounded=0;exitX=0.001;exitY=0.155;exitDx=0;exitDy=0;exitPerimeter=0;" parent="1" edge="1">
          <mxGeometry width="50" height="50" relative="1" as="geometry">
            <mxPoint x="260.72" y="308.95500000000004" as="sourcePoint" />
            <mxPoint x="1060" y="309" as="targetPoint" />
          </mxGeometry>
        </mxCell>
        <mxCell id="cWejEI39qg-8yP3Bkxt4-61" value="" style="html=1;points=[];perimeter=orthogonalPerimeter;outlineConnect=0;targetShapes=umlLifeline;portConstraint=eastwest;newEdgeStyle={&quot;edgeStyle&quot;:&quot;elbowEdgeStyle&quot;,&quot;elbow&quot;:&quot;vertical&quot;,&quot;curved&quot;:0,&quot;rounded&quot;:0};" parent="1" vertex="1">
          <mxGeometry x="555" y="270" width="10" height="20" as="geometry" />
        </mxCell>
        <mxCell id="cWejEI39qg-8yP3Bkxt4-62" value="print(:String)" style="html=1;verticalAlign=bottom;endArrow=block;edgeStyle=elbowEdgeStyle;elbow=vertical;curved=0;rounded=0;" parent="1" source="cWejEI39qg-8yP3Bkxt4-24" target="cWejEI39qg-8yP3Bkxt4-61" edge="1">
          <mxGeometry relative="1" as="geometry">
            <mxPoint x="434" y="270" as="sourcePoint" />
            <Array as="points">
              <mxPoint x="496" y="270" />
              <mxPoint x="606" y="290" />
              <mxPoint x="746" y="270" />
            </Array>
          </mxGeometry>
        </mxCell>
        <mxCell id="cWejEI39qg-8yP3Bkxt4-63" value="" style="html=1;verticalAlign=bottom;endArrow=open;dashed=1;endSize=8;edgeStyle=elbowEdgeStyle;elbow=vertical;curved=0;rounded=0;" parent="1" source="cWejEI39qg-8yP3Bkxt4-61" edge="1">
          <mxGeometry relative="1" as="geometry">
            <mxPoint x="440" y="290" as="targetPoint" />
            <Array as="points">
              <mxPoint x="516" y="290" />
              <mxPoint x="776" y="310" />
              <mxPoint x="716" y="350" />
            </Array>
          </mxGeometry>
        </mxCell>
        <mxCell id="cWejEI39qg-8yP3Bkxt4-64" value="[Exception]" style="text;html=1;strokeColor=none;fillColor=none;align=center;verticalAlign=middle;whiteSpace=wrap;rounded=0;" parent="1" vertex="1">
          <mxGeometry x="300" y="280" width="60" height="30" as="geometry" />
        </mxCell>
        <mxCell id="cWejEI39qg-8yP3Bkxt4-66" value="[else]" style="text;html=1;strokeColor=none;fillColor=none;align=center;verticalAlign=middle;whiteSpace=wrap;rounded=0;" parent="1" vertex="1">
          <mxGeometry x="260" y="320" width="60" height="30" as="geometry" />
        </mxCell>
        <mxCell id="ED-OtoVw4ywOuW7pGhMp-1" value=":TransactionManager" style="shape=umlLifeline;perimeter=lifelinePerimeter;whiteSpace=wrap;html=1;container=1;dropTarget=0;collapsible=0;recursiveResize=0;outlineConnect=0;portConstraint=eastwest;newEdgeStyle={&quot;edgeStyle&quot;:&quot;elbowEdgeStyle&quot;,&quot;elbow&quot;:&quot;vertical&quot;,&quot;curved&quot;:0,&quot;rounded&quot;:0};fillColor=#dae8fc;strokeColor=#6c8ebf;" parent="1" vertex="1">
          <mxGeometry x="920" y="160" width="120" height="540" as="geometry" />
        </mxCell>
        <mxCell id="ED-OtoVw4ywOuW7pGhMp-3" value="" style="html=1;points=[];perimeter=orthogonalPerimeter;outlineConnect=0;targetShapes=umlLifeline;portConstraint=eastwest;newEdgeStyle={&quot;edgeStyle&quot;:&quot;elbowEdgeStyle&quot;,&quot;elbow&quot;:&quot;vertical&quot;,&quot;curved&quot;:0,&quot;rounded&quot;:0};" parent="ED-OtoVw4ywOuW7pGhMp-1" vertex="1">
          <mxGeometry x="55" y="470" width="10" height="20" as="geometry" />
        </mxCell>
        <mxCell id="ED-OtoVw4ywOuW7pGhMp-4" value="addTransaction(currency:Currency, description:String, true:boolean,&lt;br style=&quot;border-color: var(--border-color);&quot;&gt;&amp;nbsp; &amp;nbsp; &amp;nbsp; &amp;nbsp; &amp;nbsp; &amp;nbsp; &amp;nbsp; &amp;nbsp; &amp;nbsp; &amp;nbsp; &amp;nbsp; &amp;nbsp; &amp;nbsp; &amp;nbsp; &amp;nbsp; &amp;nbsp; &amp;nbsp;changeInBalance:BigDecinmal, balanceAfterTransaction:BigDecimal)" style="html=1;verticalAlign=bottom;endArrow=block;edgeStyle=elbowEdgeStyle;elbow=vertical;curved=0;rounded=0;" parent="1" source="cWejEI39qg-8yP3Bkxt4-24" target="ED-OtoVw4ywOuW7pGhMp-3" edge="1">
          <mxGeometry x="0.1604" relative="1" as="geometry">
            <mxPoint x="910" y="590" as="sourcePoint" />
            <Array as="points">
              <mxPoint x="930" y="630" />
            </Array>
            <mxPoint as="offset" />
          </mxGeometry>
        </mxCell>
        <mxCell id="ED-OtoVw4ywOuW7pGhMp-5" value="" style="html=1;verticalAlign=bottom;endArrow=open;dashed=1;endSize=8;edgeStyle=elbowEdgeStyle;elbow=vertical;curved=0;rounded=0;" parent="1" source="ED-OtoVw4ywOuW7pGhMp-3" target="cWejEI39qg-8yP3Bkxt4-24" edge="1">
          <mxGeometry x="0.0012" relative="1" as="geometry">
            <mxPoint x="910" y="665" as="targetPoint" />
            <Array as="points">
              <mxPoint x="950" y="650" />
            </Array>
            <mxPoint as="offset" />
          </mxGeometry>
        </mxCell>
      </root>
    </mxGraphModel>
  </diagram>
</mxfile>
